<svg xmlns="http://www.w3.org/2000/svg" xmlns:xlink="http://www.w3.org/1999/xlink" width="500" zoomAndPan="magnify" viewBox="0 0 375 149.999998" height="200" preserveAspectRatio="xMidYMid meet" version="1.0"><defs><g/><clipPath id="a44833afbf"><path d="M 0 54.261719 L 375 54.261719 L 375 96.261719 L 0 96.261719 Z M 0 54.261719 " clip-rule="nonzero"/></clipPath></defs><rect x="-37.5" width="450" fill="#ffffff" y="-15" height="179.999997" fill-opacity="1"/><rect x="-37.5" width="450" fill="#ffffff" y="-15" height="179.999997" fill-opacity="1"/><rect x="-37.5" width="450" fill="#ffffff" y="-15" height="179.999997" fill-opacity="1"/><g fill="#231f20" fill-opacity="1"><g transform="translate(0.566122, 129.098053)"><g><path d="M 147.40625 -105.953125 C 146.875 -99.726562 145.816406 -96.546875 144.359375 -91.515625 L 120.652344 -4.636719 L 97.078125 -90.191406 C 95.222656 -96.546875 94.429688 -99.328125 94.03125 -105.953125 L 67.148438 -105.953125 C 69.929688 -100.65625 71.386719 -97.210938 73.371094 -90.191406 L 78.535156 -71.519531 L 60.261719 -4.636719 L 36.554688 -90.191406 C 34.699219 -96.546875 33.90625 -99.328125 33.507812 -105.953125 L 6.621094 -105.953125 C 9.402344 -100.65625 10.859375 -97.210938 12.847656 -90.191406 L 37.746094 0 L 64.234375 0 C 63.042969 -3.839844 63.304688 -5.695312 64.234375 -9.402344 L 79.863281 -66.484375 L 98.136719 0 L 124.757812 0 C 123.566406 -3.839844 123.832031 -5.695312 124.757812 -9.402344 L 147.273438 -91.648438 C 148.730469 -96.546875 149.261719 -99.460938 152.4375 -105.953125 Z M 147.40625 -105.953125 "/></g></g></g><g fill="#231f20" fill-opacity="1"><g transform="translate(154.585214, 129.098053)"><g><path d="M 9.269531 -105.953125 C 10.332031 -95.886719 10.726562 -89.925781 10.726562 -77.609375 L 10.726562 -28.34375 C 10.726562 -16.023438 10.332031 -10.066406 9.269531 0 L 34.433594 0 C 33.375 -10.066406 32.976562 -16.023438 32.976562 -28.34375 L 32.976562 -77.609375 C 32.976562 -89.925781 33.375 -95.886719 34.433594 -105.953125 Z M 9.269531 -105.953125 "/></g></g></g><g fill="#231f20" fill-opacity="1"><g transform="translate(191.666026, 129.098053)"><g><path d="M 98.535156 -105.953125 L 2.648438 -105.953125 L 10.332031 -95.222656 C 21.324219 -101.980469 30.328125 -103.171875 37.746094 -103.171875 L 39.46875 -103.171875 L 39.46875 -28.34375 C 39.46875 -16.023438 39.070312 -10.066406 38.011719 0 L 63.175781 0 C 62.113281 -10.066406 61.71875 -16.023438 61.71875 -28.34375 L 61.71875 -103.171875 L 63.4375 -103.171875 C 70.855469 -103.171875 79.992188 -101.980469 90.855469 -95.222656 Z M 98.535156 -105.953125 "/></g></g></g><g fill="#231f20" fill-opacity="1"><g transform="translate(286.222732, 129.098053)"><g><path d="M 9.269531 -105.953125 C 10.460938 -95.886719 10.859375 -89.925781 10.859375 -77.609375 L 10.859375 -28.34375 C 10.859375 -16.023438 10.460938 -10.066406 9.269531 0 L 79.332031 0 L 84.230469 -10.332031 C 66.484375 -3.707031 58.671875 -2.78125 44.765625 -2.78125 L 33.109375 -2.78125 L 33.109375 -54.433594 L 40.128906 -54.433594 C 47.148438 -54.433594 54.300781 -54.433594 66.617188 -53.109375 L 66.617188 -58.539062 C 54.300781 -57.214844 47.148438 -57.214844 40.128906 -57.214844 L 33.109375 -57.214844 L 33.109375 -103.171875 L 44.5 -103.171875 C 51.917969 -103.171875 62.644531 -101.980469 73.636719 -95.222656 L 81.316406 -105.953125 Z M 9.269531 -105.953125 "/></g></g></g><g clip-path="url(#a44833afbf)"><path fill="#ffffff" d="M 0.015625 54.261719 L 374.984375 54.261719 L 374.984375 96.261719 L 0.015625 96.261719 L 0.015625 54.261719 " fill-opacity="1" fill-rule="nonzero"/></g><g fill="#000000" fill-opacity="1"><g transform="translate(7.32715, 84.320644)"><g><path d="M 26.75 -17.9375 L 21.964844 -17.9375 L 19.367188 -3.585938 L 17.105469 -17.675781 L 10.398438 -17.675781 L 8.03125 -3.640625 L 5.640625 -17.9375 L 0.675781 -17.9375 L 4.992188 0 L 11.253906 0 L 13.671875 -13.960938 L 15.933594 0 L 22.171875 0 Z M 26.75 -17.9375 "/></g></g></g><g fill="#000000" fill-opacity="1"><g transform="translate(41.405156, 84.320644)"><g><path d="M 18.613281 -17.9375 L 13.933594 -17.9375 L 13.933594 -10.605469 L 6.757812 -10.605469 L 6.757812 -17.9375 L 2.078125 -17.9375 L 2.078125 0 L 6.757812 0 L 6.757812 -6.964844 L 13.933594 -6.964844 L 13.933594 0 L 18.613281 0 Z M 18.613281 -17.9375 "/></g></g></g><g fill="#000000" fill-opacity="1"><g transform="translate(69.089073, 84.320644)"><g><path d="M 15.832031 -3.640625 L 6.757812 -3.640625 L 6.757812 -7.175781 L 15.050781 -7.175781 L 15.050781 -10.8125 L 6.757812 -10.8125 L 6.757812 -14.296875 L 15.570312 -14.296875 L 15.570312 -17.9375 L 2.078125 -17.9375 L 2.078125 0 L 15.832031 0 Z M 15.832031 -3.640625 "/></g></g></g><g fill="#000000" fill-opacity="1"><g transform="translate(93.368015, 84.320644)"><g><path d="M 16.066406 -4.367188 C 15.804688 -6.523438 15.128906 -7.902344 13.257812 -8.578125 C 15.648438 -9.28125 16.871094 -10.789062 16.871094 -13.050781 C 16.871094 -16.222656 14.609375 -17.496094 12.007812 -17.804688 C 11.046875 -17.910156 10.320312 -17.9375 9.203125 -17.9375 L 2.078125 -17.9375 L 2.078125 0 L 6.757812 0 L 6.757812 -6.8125 L 7.796875 -6.8125 C 8.320312 -6.8125 8.761719 -6.8125 9.28125 -6.785156 C 10.476562 -6.707031 11.253906 -5.5625 11.488281 -3.585938 C 11.644531 -2.3125 11.90625 -1.273438 12.320312 0 L 17.417969 0 C 16.714844 -1.066406 16.300781 -2.339844 16.066406 -4.367188 Z M 6.757812 -10.191406 L 6.757812 -14.296875 L 8.578125 -14.296875 C 9.070312 -14.296875 9.488281 -14.296875 9.824219 -14.269531 C 11.023438 -14.167969 11.984375 -13.75 11.984375 -12.242188 C 11.984375 -10.734375 10.890625 -10.320312 9.695312 -10.214844 C 9.359375 -10.191406 8.941406 -10.191406 8.449219 -10.191406 Z M 6.757812 -10.191406 "/></g></g></g><g fill="#000000" fill-opacity="1"><g transform="translate(118.764628, 84.320644)"><g><path d="M 15.832031 -3.640625 L 6.757812 -3.640625 L 6.757812 -7.175781 L 15.050781 -7.175781 L 15.050781 -10.8125 L 6.757812 -10.8125 L 6.757812 -14.296875 L 15.570312 -14.296875 L 15.570312 -17.9375 L 2.078125 -17.9375 L 2.078125 0 L 15.832031 0 Z M 15.832031 -3.640625 "/></g></g></g><g fill="#000000" fill-opacity="1"><g transform="translate(143.043576, 84.320644)"><g/></g></g><g fill="#000000" fill-opacity="1"><g transform="translate(155.288124, 84.320644)"><g><path d="M 6.757812 0 L 6.757812 -17.9375 L 2.078125 -17.9375 L 2.078125 0 Z M 6.757812 0 "/></g></g></g><g fill="#000000" fill-opacity="1"><g transform="translate(171.119606, 84.320644)"><g><path d="M 8.371094 -18.300781 C 4.808594 -18.300781 1.585938 -16.351562 1.585938 -12.894531 C 1.585938 -9.304688 3.976562 -8.03125 8.058594 -7.019531 C 10.269531 -6.472656 10.945312 -5.667969 10.945312 -4.730469 C 10.945312 -3.742188 9.957031 -3.066406 8.65625 -3.066406 C 7.253906 -3.066406 5.875 -3.796875 5.5625 -5.484375 L 0.882812 -5.484375 C 1.167969 -1.457031 4.238281 0.363281 8.785156 0.363281 C 12.398438 0.363281 15.832031 -1.457031 15.832031 -5.042969 C 15.832031 -7.796875 14.21875 -9.773438 10.269531 -10.710938 C 7.304688 -11.410156 6.472656 -12.113281 6.472656 -13.257812 C 6.472656 -14.347656 7.199219 -14.867188 8.265625 -14.867188 C 9.800781 -14.867188 10.578125 -13.882812 10.789062 -12.398438 L 15.46875 -12.398438 C 15.078125 -15.726562 13.101562 -18.300781 8.371094 -18.300781 Z M 8.371094 -18.300781 "/></g></g></g><g fill="#000000" fill-opacity="1"><g transform="translate(195.060656, 84.320644)"><g/></g></g><g fill="#000000" fill-opacity="1"><g transform="translate(207.305204, 84.320644)"><g><path d="M 16.6875 -14.296875 L 16.6875 -17.9375 L 0.363281 -17.9375 L 0.363281 -14.296875 L 6.1875 -14.296875 L 6.1875 0 L 10.867188 0 L 10.867188 -14.296875 Z M 16.6875 -14.296875 "/></g></g></g><g fill="#000000" fill-opacity="1"><g transform="translate(231.402202, 84.320644)"><g><path d="M 18.613281 -17.9375 L 13.933594 -17.9375 L 13.933594 -10.605469 L 6.757812 -10.605469 L 6.757812 -17.9375 L 2.078125 -17.9375 L 2.078125 0 L 6.757812 0 L 6.757812 -6.964844 L 13.933594 -6.964844 L 13.933594 0 L 18.613281 0 Z M 18.613281 -17.9375 "/></g></g></g><g fill="#000000" fill-opacity="1"><g transform="translate(259.086123, 84.320644)"><g><path d="M 15.832031 -3.640625 L 6.757812 -3.640625 L 6.757812 -7.175781 L 15.050781 -7.175781 L 15.050781 -10.8125 L 6.757812 -10.8125 L 6.757812 -14.296875 L 15.570312 -14.296875 L 15.570312 -17.9375 L 2.078125 -17.9375 L 2.078125 0 L 15.832031 0 Z M 15.832031 -3.640625 "/></g></g></g><g fill="#000000" fill-opacity="1"><g transform="translate(283.36506, 84.320644)"><g/></g></g><g fill="#000000" fill-opacity="1"><g transform="translate(295.609596, 84.320644)"><g><path d="M 15.832031 -3.640625 L 6.757812 -3.640625 L 6.757812 -7.175781 L 15.050781 -7.175781 L 15.050781 -10.8125 L 6.757812 -10.8125 L 6.757812 -14.296875 L 15.570312 -14.296875 L 15.570312 -17.9375 L 2.078125 -17.9375 L 2.078125 0 L 15.832031 0 Z M 15.832031 -3.640625 "/></g></g></g><g fill="#000000" fill-opacity="1"><g transform="translate(319.888534, 84.320644)"><g><path d="M 19.234375 0 L 19.234375 -17.9375 L 14.558594 -17.9375 L 14.558594 -10.269531 C 14.558594 -9.226562 14.582031 -7.382812 14.714844 -5.5625 L 7.902344 -17.9375 L 2.078125 -17.9375 L 2.078125 0 L 6.757812 0 L 6.757812 -7.410156 C 6.757812 -8.449219 6.757812 -10.035156 6.601562 -11.855469 L 13.128906 0 Z M 19.234375 0 "/></g></g></g><g fill="#000000" fill-opacity="1"><g transform="translate(348.196271, 84.320644)"><g><path d="M 11.152344 -17.832031 C 10.242188 -17.9375 9.824219 -17.9375 8.863281 -17.9375 L 2.078125 -17.9375 L 2.078125 0 L 8.863281 0 C 9.824219 0 10.242188 0 11.152344 -0.105469 C 15.3125 -0.570312 18.742188 -3.585938 18.742188 -9.203125 C 18.742188 -14.816406 15.3125 -17.363281 11.152344 -17.832031 Z M 9.902344 -3.691406 C 9.304688 -3.640625 8.890625 -3.640625 8.214844 -3.640625 L 6.757812 -3.640625 L 6.757812 -14.296875 L 8.214844 -14.296875 C 8.890625 -14.296875 9.304688 -14.296875 9.902344 -14.246094 C 12.242188 -14.039062 13.855469 -12.320312 13.855469 -9.125 C 13.855469 -5.925781 12.242188 -3.898438 9.902344 -3.691406 Z M 9.902344 -3.691406 "/></g></g></g></svg>