<svg xmlns="http://www.w3.org/2000/svg" xmlns:xlink="http://www.w3.org/1999/xlink" width="500" zoomAndPan="magnify" viewBox="0 0 375 149.999998" height="200" preserveAspectRatio="xMidYMid meet" version="1.0"><defs><g/></defs><g fill="#545454" fill-opacity="1"><g transform="translate(0.567884, 129.326246)"><g><path d="M 147.398438 -105.949219 C 146.871094 -99.722656 145.8125 -96.546875 144.355469 -91.511719 L 120.648438 -4.636719 L 97.074219 -90.1875 C 95.222656 -96.546875 94.425781 -99.328125 94.027344 -105.949219 L 67.144531 -105.949219 C 69.925781 -100.652344 71.382812 -97.207031 73.367188 -90.1875 L 78.535156 -71.515625 L 60.257812 -4.636719 L 36.550781 -90.1875 C 34.699219 -96.546875 33.902344 -99.328125 33.507812 -105.949219 L 6.621094 -105.949219 C 9.402344 -100.652344 10.859375 -97.207031 12.847656 -90.1875 L 37.742188 0 L 64.230469 0 C 63.039062 -3.839844 63.304688 -5.695312 64.230469 -9.402344 L 79.859375 -66.480469 L 98.132812 0 L 124.753906 0 C 123.5625 -3.839844 123.828125 -5.695312 124.753906 -9.402344 L 147.269531 -91.644531 C 148.722656 -96.546875 149.253906 -99.457031 152.433594 -105.949219 Z M 147.398438 -105.949219 "/></g></g></g><g fill="#545454" fill-opacity="1"><g transform="translate(154.587695, 129.326246)"><g><path d="M 9.269531 -105.949219 C 10.328125 -95.882812 10.726562 -89.921875 10.726562 -77.605469 L 10.726562 -28.339844 C 10.726562 -16.023438 10.328125 -10.066406 9.269531 0 L 34.433594 0 C 33.375 -10.066406 32.976562 -16.023438 32.976562 -28.339844 L 32.976562 -77.605469 C 32.976562 -89.921875 33.375 -95.882812 34.433594 -105.949219 Z M 9.269531 -105.949219 "/></g></g></g><g fill="#545454" fill-opacity="1"><g transform="translate(191.668713, 129.326246)"><g><path d="M 98.53125 -105.949219 L 2.648438 -105.949219 L 10.328125 -95.222656 C 21.320312 -101.976562 30.328125 -103.167969 37.742188 -103.167969 L 39.464844 -103.167969 L 39.464844 -28.339844 C 39.464844 -16.023438 39.066406 -10.066406 38.007812 0 L 63.171875 0 C 62.113281 -10.066406 61.714844 -16.023438 61.714844 -28.339844 L 61.714844 -103.167969 L 63.4375 -103.167969 C 70.851562 -103.167969 79.992188 -101.976562 90.851562 -95.222656 Z M 98.53125 -105.949219 "/></g></g></g><g fill="#545454" fill-opacity="1"><g transform="translate(286.225882, 129.326246)"><g><path d="M 9.269531 -105.949219 C 10.460938 -95.882812 10.859375 -89.921875 10.859375 -77.605469 L 10.859375 -28.339844 C 10.859375 -16.023438 10.460938 -10.066406 9.269531 0 L 79.328125 0 L 84.230469 -10.328125 C 66.480469 -3.707031 58.667969 -2.78125 44.761719 -2.78125 L 33.109375 -2.78125 L 33.109375 -54.429688 L 40.128906 -54.429688 C 47.148438 -54.429688 54.296875 -54.429688 66.613281 -53.105469 L 66.613281 -58.535156 C 54.296875 -57.210938 47.148438 -57.210938 40.128906 -57.210938 L 33.109375 -57.210938 L 33.109375 -103.167969 L 44.5 -103.167969 C 51.914062 -103.167969 62.640625 -101.976562 73.632812 -95.222656 L 81.316406 -105.949219 Z M 9.269531 -105.949219 "/></g></g></g><g fill="#ffffff" fill-opacity="1"><g transform="translate(7.32715, 84.320644)"><g><path d="M 26.75 -17.9375 L 21.964844 -17.9375 L 19.367188 -3.585938 L 17.105469 -17.675781 L 10.398438 -17.675781 L 8.03125 -3.640625 L 5.640625 -17.9375 L 0.675781 -17.9375 L 4.992188 0 L 11.253906 0 L 13.671875 -13.960938 L 15.933594 0 L 22.171875 0 Z M 26.75 -17.9375 "/></g></g></g><g fill="#ffffff" fill-opacity="1"><g transform="translate(41.405156, 84.320644)"><g><path d="M 18.613281 -17.9375 L 13.933594 -17.9375 L 13.933594 -10.605469 L 6.757812 -10.605469 L 6.757812 -17.9375 L 2.078125 -17.9375 L 2.078125 0 L 6.757812 0 L 6.757812 -6.964844 L 13.933594 -6.964844 L 13.933594 0 L 18.613281 0 Z M 18.613281 -17.9375 "/></g></g></g><g fill="#ffffff" fill-opacity="1"><g transform="translate(69.089073, 84.320644)"><g><path d="M 15.832031 -3.640625 L 6.757812 -3.640625 L 6.757812 -7.175781 L 15.050781 -7.175781 L 15.050781 -10.8125 L 6.757812 -10.8125 L 6.757812 -14.296875 L 15.570312 -14.296875 L 15.570312 -17.9375 L 2.078125 -17.9375 L 2.078125 0 L 15.832031 0 Z M 15.832031 -3.640625 "/></g></g></g><g fill="#ffffff" fill-opacity="1"><g transform="translate(93.368015, 84.320644)"><g><path d="M 16.066406 -4.367188 C 15.804688 -6.523438 15.128906 -7.902344 13.257812 -8.578125 C 15.648438 -9.28125 16.871094 -10.789062 16.871094 -13.050781 C 16.871094 -16.222656 14.609375 -17.496094 12.007812 -17.804688 C 11.046875 -17.910156 10.320312 -17.9375 9.203125 -17.9375 L 2.078125 -17.9375 L 2.078125 0 L 6.757812 0 L 6.757812 -6.8125 L 7.796875 -6.8125 C 8.320312 -6.8125 8.761719 -6.8125 9.28125 -6.785156 C 10.476562 -6.707031 11.253906 -5.5625 11.488281 -3.585938 C 11.644531 -2.3125 11.90625 -1.273438 12.320312 0 L 17.417969 0 C 16.714844 -1.066406 16.300781 -2.339844 16.066406 -4.367188 Z M 6.757812 -10.191406 L 6.757812 -14.296875 L 8.578125 -14.296875 C 9.070312 -14.296875 9.488281 -14.296875 9.824219 -14.269531 C 11.023438 -14.167969 11.984375 -13.75 11.984375 -12.242188 C 11.984375 -10.734375 10.890625 -10.320312 9.695312 -10.214844 C 9.359375 -10.191406 8.941406 -10.191406 8.449219 -10.191406 Z M 6.757812 -10.191406 "/></g></g></g><g fill="#ffffff" fill-opacity="1"><g transform="translate(118.764628, 84.320644)"><g><path d="M 15.832031 -3.640625 L 6.757812 -3.640625 L 6.757812 -7.175781 L 15.050781 -7.175781 L 15.050781 -10.8125 L 6.757812 -10.8125 L 6.757812 -14.296875 L 15.570312 -14.296875 L 15.570312 -17.9375 L 2.078125 -17.9375 L 2.078125 0 L 15.832031 0 Z M 15.832031 -3.640625 "/></g></g></g><g fill="#ffffff" fill-opacity="1"><g transform="translate(143.043576, 84.320644)"><g/></g></g><g fill="#ffffff" fill-opacity="1"><g transform="translate(155.288124, 84.320644)"><g><path d="M 6.757812 0 L 6.757812 -17.9375 L 2.078125 -17.9375 L 2.078125 0 Z M 6.757812 0 "/></g></g></g><g fill="#ffffff" fill-opacity="1"><g transform="translate(171.119606, 84.320644)"><g><path d="M 8.371094 -18.300781 C 4.808594 -18.300781 1.585938 -16.351562 1.585938 -12.894531 C 1.585938 -9.304688 3.976562 -8.03125 8.058594 -7.019531 C 10.269531 -6.472656 10.945312 -5.667969 10.945312 -4.730469 C 10.945312 -3.742188 9.957031 -3.066406 8.65625 -3.066406 C 7.253906 -3.066406 5.875 -3.796875 5.5625 -5.484375 L 0.882812 -5.484375 C 1.167969 -1.457031 4.238281 0.363281 8.785156 0.363281 C 12.398438 0.363281 15.832031 -1.457031 15.832031 -5.042969 C 15.832031 -7.796875 14.21875 -9.773438 10.269531 -10.710938 C 7.304688 -11.410156 6.472656 -12.113281 6.472656 -13.257812 C 6.472656 -14.347656 7.199219 -14.867188 8.265625 -14.867188 C 9.800781 -14.867188 10.578125 -13.882812 10.789062 -12.398438 L 15.46875 -12.398438 C 15.078125 -15.726562 13.101562 -18.300781 8.371094 -18.300781 Z M 8.371094 -18.300781 "/></g></g></g><g fill="#ffffff" fill-opacity="1"><g transform="translate(195.060656, 84.320644)"><g/></g></g><g fill="#ffffff" fill-opacity="1"><g transform="translate(207.305204, 84.320644)"><g><path d="M 16.6875 -14.296875 L 16.6875 -17.9375 L 0.363281 -17.9375 L 0.363281 -14.296875 L 6.1875 -14.296875 L 6.1875 0 L 10.867188 0 L 10.867188 -14.296875 Z M 16.6875 -14.296875 "/></g></g></g><g fill="#ffffff" fill-opacity="1"><g transform="translate(231.402202, 84.320644)"><g><path d="M 18.613281 -17.9375 L 13.933594 -17.9375 L 13.933594 -10.605469 L 6.757812 -10.605469 L 6.757812 -17.9375 L 2.078125 -17.9375 L 2.078125 0 L 6.757812 0 L 6.757812 -6.964844 L 13.933594 -6.964844 L 13.933594 0 L 18.613281 0 Z M 18.613281 -17.9375 "/></g></g></g><g fill="#ffffff" fill-opacity="1"><g transform="translate(259.086123, 84.320644)"><g><path d="M 15.832031 -3.640625 L 6.757812 -3.640625 L 6.757812 -7.175781 L 15.050781 -7.175781 L 15.050781 -10.8125 L 6.757812 -10.8125 L 6.757812 -14.296875 L 15.570312 -14.296875 L 15.570312 -17.9375 L 2.078125 -17.9375 L 2.078125 0 L 15.832031 0 Z M 15.832031 -3.640625 "/></g></g></g><g fill="#ffffff" fill-opacity="1"><g transform="translate(283.36506, 84.320644)"><g/></g></g><g fill="#ffffff" fill-opacity="1"><g transform="translate(295.609596, 84.320644)"><g><path d="M 15.832031 -3.640625 L 6.757812 -3.640625 L 6.757812 -7.175781 L 15.050781 -7.175781 L 15.050781 -10.8125 L 6.757812 -10.8125 L 6.757812 -14.296875 L 15.570312 -14.296875 L 15.570312 -17.9375 L 2.078125 -17.9375 L 2.078125 0 L 15.832031 0 Z M 15.832031 -3.640625 "/></g></g></g><g fill="#ffffff" fill-opacity="1"><g transform="translate(319.888534, 84.320644)"><g><path d="M 19.234375 0 L 19.234375 -17.9375 L 14.558594 -17.9375 L 14.558594 -10.269531 C 14.558594 -9.226562 14.582031 -7.382812 14.714844 -5.5625 L 7.902344 -17.9375 L 2.078125 -17.9375 L 2.078125 0 L 6.757812 0 L 6.757812 -7.410156 C 6.757812 -8.449219 6.757812 -10.035156 6.601562 -11.855469 L 13.128906 0 Z M 19.234375 0 "/></g></g></g><g fill="#ffffff" fill-opacity="1"><g transform="translate(348.196271, 84.320644)"><g><path d="M 11.152344 -17.832031 C 10.242188 -17.9375 9.824219 -17.9375 8.863281 -17.9375 L 2.078125 -17.9375 L 2.078125 0 L 8.863281 0 C 9.824219 0 10.242188 0 11.152344 -0.105469 C 15.3125 -0.570312 18.742188 -3.585938 18.742188 -9.203125 C 18.742188 -14.816406 15.3125 -17.363281 11.152344 -17.832031 Z M 9.902344 -3.691406 C 9.304688 -3.640625 8.890625 -3.640625 8.214844 -3.640625 L 6.757812 -3.640625 L 6.757812 -14.296875 L 8.214844 -14.296875 C 8.890625 -14.296875 9.304688 -14.296875 9.902344 -14.246094 C 12.242188 -14.039062 13.855469 -12.320312 13.855469 -9.125 C 13.855469 -5.925781 12.242188 -3.898438 9.902344 -3.691406 Z M 9.902344 -3.691406 "/></g></g></g><path stroke-linecap="butt" transform="matrix(0.75, 0, 0, 0.75, 3.834962, 56.570646)" fill="none" stroke-linejoin="miter" d="M 40.324219 13.088098 L 33.94401 13.088098 L 30.480468 32.218307 L 27.459635 13.431848 L 18.516926 13.431848 L 15.371093 32.150599 L 12.178384 13.088098 L 5.553384 13.088098 L 11.308592 36.999558 L 19.667968 36.999558 L 22.88151 18.384973 L 25.902343 36.999558 L 34.220052 36.999558 Z M 74.912763 13.088098 L 68.667971 13.088098 L 68.667971 22.858932 L 59.10547 22.858932 L 59.10547 13.088098 L 52.871095 13.088098 L 52.871095 36.999558 L 59.10547 36.999558 L 59.10547 27.70789 L 68.667971 27.70789 L 68.667971 36.999558 L 74.912763 36.999558 Z M 108.110681 32.150599 L 96.016931 32.150599 L 96.016931 27.437057 L 107.079431 27.437057 L 107.079431 22.58289 L 96.016931 22.58289 L 96.016931 17.937057 L 107.761723 17.937057 L 107.761723 13.088098 L 89.782555 13.088098 L 89.782555 36.999558 L 108.110681 36.999558 Z M 140.792975 31.176641 C 140.449225 28.30164 139.548183 26.463099 137.053391 25.562057 C 140.2461 24.629765 141.8711 22.61414 141.8711 19.603723 C 141.8711 15.369348 138.855475 13.671431 135.386725 13.254765 C 134.110683 13.119348 133.136724 13.088098 131.647141 13.088098 L 122.152349 13.088098 L 122.152349 36.999558 L 128.391933 36.999558 L 128.391933 27.921432 L 129.777349 27.921432 C 130.470058 27.921432 131.053391 27.921432 131.751308 27.952682 C 133.350266 28.056849 134.386725 29.577682 134.694016 32.218307 C 134.907558 33.911016 135.251308 35.301641 135.8086 36.999558 L 142.595058 36.999558 C 141.667975 35.577683 141.105475 33.879766 140.792975 31.176641 Z M 128.391933 23.411015 L 128.391933 17.937057 L 130.819016 17.937057 C 131.480474 17.937057 132.027349 17.937057 132.475266 17.968307 C 134.074225 18.11414 135.355475 18.661015 135.355475 20.67664 C 135.355475 22.681848 133.897141 23.23914 132.308599 23.374557 C 131.860683 23.411015 131.298183 23.411015 130.641933 23.411015 Z M 174.34506 32.150599 L 162.25131 32.150599 L 162.25131 27.437057 L 173.31381 27.437057 L 173.31381 22.58289 L 162.25131 22.58289 L 162.25131 17.937057 L 173.996102 17.937057 L 173.996102 13.088098 L 156.016934 13.088098 L 156.016934 36.999558 L 174.34506 36.999558 Z M 210.949229 36.999558 L 210.949229 13.088098 L 204.714854 13.088098 L 204.714854 36.999558 Z M 234.209647 12.593306 C 229.459647 12.593306 225.162772 15.202681 225.162772 19.806848 C 225.162772 24.593307 228.350272 26.286015 233.79298 27.640182 C 236.735689 28.369349 237.636731 29.442266 237.636731 30.697474 C 237.636731 32.009974 236.32423 32.911016 234.589855 32.911016 C 232.720064 32.911016 230.881522 31.942266 230.464855 29.687057 L 224.220063 29.687057 C 224.60548 35.062058 228.69923 37.483933 234.756522 37.483933 C 239.579439 37.483933 244.152356 35.062058 244.152356 30.270391 C 244.152356 26.598515 242.011731 23.968307 236.735689 22.718307 C 232.787772 21.786015 231.678397 20.848515 231.678397 19.322473 C 231.678397 17.869348 232.652355 17.171431 234.07423 17.171431 C 236.110689 17.171431 237.152356 18.494348 237.433606 20.463098 L 243.667981 20.463098 C 243.152356 16.030806 240.511731 12.593306 234.209647 12.593306 Z M 293.548192 17.937057 L 293.548192 13.088098 L 271.777358 13.088098 L 271.777358 17.937057 L 279.542983 17.937057 L 279.542983 36.999558 L 285.782567 36.999558 L 285.782567 17.937057 Z M 328.240903 13.088098 L 321.99611 13.088098 L 321.99611 22.858932 L 312.43361 22.858932 L 312.43361 13.088098 L 306.199235 13.088098 L 306.199235 36.999558 L 312.43361 36.999558 L 312.43361 27.70789 L 321.99611 27.70789 L 321.99611 36.999558 L 328.240903 36.999558 Z M 361.438821 32.150599 L 349.34507 32.150599 L 349.34507 27.437057 L 360.407571 27.437057 L 360.407571 22.58289 L 349.34507 22.58289 L 349.34507 17.937057 L 361.089863 17.937057 L 361.089863 13.088098 L 343.110695 13.088098 L 343.110695 36.999558 L 361.438821 36.999558 Z M 410.136741 32.150599 L 398.04299 32.150599 L 398.04299 27.437057 L 409.105491 27.437057 L 409.105491 22.58289 L 398.04299 22.58289 L 398.04299 17.937057 L 409.787782 17.937057 L 409.787782 13.088098 L 391.808615 13.088098 L 391.808615 36.999558 L 410.136741 36.999558 Z M 447.053409 36.999558 L 447.053409 13.088098 L 440.813826 13.088098 L 440.813826 23.306848 C 440.813826 24.697474 440.850284 27.161015 441.016951 29.577682 L 431.938825 13.088098 L 424.178408 13.088098 L 424.178408 36.999558 L 430.417992 36.999558 L 430.417992 27.124557 C 430.417992 25.73914 430.417992 23.619349 430.20445 21.192265 L 438.902367 36.999558 Z M 474.016953 13.223515 C 472.803411 13.088098 472.246119 13.088098 470.970078 13.088098 L 461.923202 13.088098 L 461.923202 36.999558 L 470.970078 36.999558 C 472.246119 36.999558 472.803411 36.999558 474.016953 36.864141 C 479.569036 36.239141 484.136745 32.218307 484.136745 24.728724 C 484.136745 17.23914 479.569036 13.848515 474.016953 13.223515 Z M 472.355494 32.077682 C 471.553411 32.150599 471.001328 32.150599 470.100286 32.150599 L 468.162786 32.150599 L 468.162786 17.937057 L 470.100286 17.937057 C 471.001328 17.937057 471.553411 17.937057 472.355494 18.004765 C 475.470078 18.280807 477.62112 20.567265 477.62112 24.83289 C 477.62112 29.098515 475.470078 31.806849 472.355494 32.077682 Z M 472.355494 32.077682 " stroke="#000000" stroke-width="2.383308" stroke-opacity="1" stroke-miterlimit="4"/><path stroke-linecap="butt" transform="matrix(0.75, 0, 0, 0.75, 0.000003125, 11.353023)" fill="none" stroke-linejoin="miter" d="M -0.00000416667 -0.00194704 L 500.000025 -0.00194704 " stroke="#000000" stroke-width="4" stroke-opacity="1" stroke-miterlimit="4"/><path stroke-linecap="butt" transform="matrix(0.75, 0, 0, 0.75, 0.000003125, 140.042382)" fill="none" stroke-linejoin="miter" d="M -0.00000416667 0.000782559 L 500.000025 0.000782559 " stroke="#000000" stroke-width="4" stroke-opacity="1" stroke-miterlimit="4"/></svg>