<svg xmlns="http://www.w3.org/2000/svg" xmlns:xlink="http://www.w3.org/1999/xlink" width="500" zoomAndPan="magnify" viewBox="0 0 375 374.999991" height="500" preserveAspectRatio="xMidYMid meet" version="1.0"><defs><g/><clipPath id="28d681679b"><path d="M 102.816406 103.203125 L 271.566406 103.203125 L 271.566406 271.953125 L 102.816406 271.953125 Z M 102.816406 103.203125 " clip-rule="nonzero"/></clipPath><clipPath id="be625f8b52"><path d="M 99.550781 99.550781 L 275.308594 99.550781 L 275.308594 275.308594 L 99.550781 275.308594 Z M 99.550781 99.550781 " clip-rule="nonzero"/></clipPath></defs><g clip-path="url(#28d681679b)"><path fill="#cbb074" d="M 187.191406 103.203125 C 140.59375 103.203125 102.816406 140.980469 102.816406 187.578125 C 102.816406 234.175781 140.59375 271.953125 187.191406 271.953125 C 233.792969 271.953125 271.566406 234.175781 271.566406 187.578125 C 271.566406 140.980469 233.792969 103.203125 187.191406 103.203125 " fill-opacity="1" fill-rule="nonzero"/></g><g clip-path="url(#be625f8b52)"><path fill="#000000" d="M 187.429688 275.308594 C 163.96875 275.308594 141.875 266.175781 125.296875 249.5625 C 108.683594 232.984375 99.550781 210.890625 99.550781 187.429688 C 99.550781 163.96875 108.683594 141.875 125.296875 125.296875 C 141.875 108.683594 163.96875 99.550781 187.429688 99.550781 C 210.890625 99.550781 232.984375 108.683594 249.5625 125.296875 C 266.175781 141.910156 275.308594 163.96875 275.308594 187.429688 C 275.308594 210.890625 266.175781 232.984375 249.5625 249.5625 C 232.984375 266.175781 210.890625 275.308594 187.429688 275.308594 Z M 187.429688 104.820312 C 165.371094 104.820312 144.613281 113.425781 129.019531 129.019531 C 113.425781 144.613281 104.820312 165.371094 104.820312 187.429688 C 104.820312 209.488281 113.425781 230.246094 129.019531 245.839844 C 144.613281 261.433594 165.371094 270.039062 187.429688 270.039062 C 209.488281 270.039062 230.246094 261.433594 245.839844 245.839844 C 261.433594 230.246094 270.039062 209.488281 270.039062 187.429688 C 270.039062 165.371094 261.433594 144.613281 245.839844 129.019531 C 230.246094 113.425781 209.488281 104.820312 187.429688 104.820312 Z M 187.429688 104.820312 " fill-opacity="1" fill-rule="nonzero"/></g><g fill="#000000" fill-opacity="1"><g transform="translate(106.425378, 213.45145)"><g><path d="M 51.234375 0 L 40.296875 0 L 32.515625 -28.9375 L 24.625 0 L 13.625 0 L -0.0625 -41.84375 L 11.296875 -41.84375 L 19.484375 -11.0625 L 27.5 -41.84375 L 37.90625 -41.84375 L 46.09375 -11.0625 L 54.15625 -41.84375 L 65.046875 -41.84375 Z M 51.234375 0 "/></g></g></g><g fill="#000000" fill-opacity="1"><g transform="translate(171.044655, 213.45145)"><g><path d="M 14.828125 0 L 4.1875 0 L 4.1875 -41.84375 L 14.828125 -41.84375 Z M 14.828125 0 "/></g></g></g><g fill="#000000" fill-opacity="1"><g transform="translate(190.05384, 213.45145)"><g><path d="M 36.171875 -33.296875 L 23.546875 -33.296875 L 23.546875 0 L 12.90625 0 L 12.90625 -33.296875 L 0.421875 -33.296875 L 0.421875 -41.90625 L 36.171875 -41.90625 Z M 36.171875 -33.296875 "/></g></g></g><g fill="#000000" fill-opacity="1"><g transform="translate(226.577782, 213.45145)"><g><path d="M 36.9375 -33.484375 L 14.828125 -33.484375 L 14.828125 -25.171875 L 34.796875 -25.171875 L 34.796875 -16.796875 L 14.828125 -16.796875 L 14.828125 -8.375 L 37.609375 -8.375 L 37.609375 0 L 4.1875 0 L 4.1875 -41.84375 L 36.9375 -41.84375 Z M 36.9375 -33.484375 "/></g></g></g><path stroke-linecap="butt" transform="matrix(0.748298, 0, 0, 0.75, 107.102678, 162.68325)" fill="none" stroke-linejoin="miter" d="M -0.00149107 0.000458177 L 213.488117 0.000458177 " stroke="#000000" stroke-width="4" stroke-opacity="1" stroke-miterlimit="4"/><path stroke-linecap="butt" transform="matrix(0.751785, -0.00000000000000042, 0.000000000000000419, 0.75, 111.860534, 222.059765)" fill="none" stroke-linejoin="miter" d="M -0.0015416 -0.00156116 L 203.514105 -0.00156116 " stroke="#000000" stroke-width="4" stroke-opacity="1" stroke-miterlimit="4"/></svg>