<svg xmlns="http://www.w3.org/2000/svg" xmlns:xlink="http://www.w3.org/1999/xlink" width="800" zoomAndPan="magnify" viewBox="0 0 600 149.999998" height="200" preserveAspectRatio="xMidYMid meet" version="1.0"><defs><g/></defs><g fill="#545454" fill-opacity="1"><g transform="translate(113.067874, 129.326246)"><g><path d="M 147.398438 -105.949219 C 146.871094 -99.722656 145.8125 -96.546875 144.355469 -91.511719 L 120.648438 -4.636719 L 97.074219 -90.1875 C 95.222656 -96.546875 94.425781 -99.328125 94.027344 -105.949219 L 67.144531 -105.949219 C 69.925781 -100.652344 71.382812 -97.207031 73.367188 -90.1875 L 78.535156 -71.515625 L 60.257812 -4.636719 L 36.550781 -90.1875 C 34.699219 -96.546875 33.902344 -99.328125 33.507812 -105.949219 L 6.621094 -105.949219 C 9.402344 -100.652344 10.859375 -97.207031 12.847656 -90.1875 L 37.742188 0 L 64.230469 0 C 63.039062 -3.839844 63.304688 -5.695312 64.230469 -9.402344 L 79.859375 -66.480469 L 98.132812 0 L 124.753906 0 C 123.5625 -3.839844 123.828125 -5.695312 124.753906 -9.402344 L 147.269531 -91.644531 C 148.722656 -96.546875 149.253906 -99.457031 152.433594 -105.949219 Z M 147.398438 -105.949219 "/></g></g></g><g fill="#545454" fill-opacity="1"><g transform="translate(267.087685, 129.326246)"><g><path d="M 9.269531 -105.949219 C 10.328125 -95.882812 10.726562 -89.921875 10.726562 -77.605469 L 10.726562 -28.339844 C 10.726562 -16.023438 10.328125 -10.066406 9.269531 0 L 34.433594 0 C 33.375 -10.066406 32.976562 -16.023438 32.976562 -28.339844 L 32.976562 -77.605469 C 32.976562 -89.921875 33.375 -95.882812 34.433594 -105.949219 Z M 9.269531 -105.949219 "/></g></g></g><g fill="#545454" fill-opacity="1"><g transform="translate(304.168703, 129.326246)"><g><path d="M 98.53125 -105.949219 L 2.648438 -105.949219 L 10.328125 -95.222656 C 21.320312 -101.976562 30.328125 -103.167969 37.742188 -103.167969 L 39.464844 -103.167969 L 39.464844 -28.339844 C 39.464844 -16.023438 39.066406 -10.066406 38.007812 0 L 63.171875 0 C 62.113281 -10.066406 61.714844 -16.023438 61.714844 -28.339844 L 61.714844 -103.167969 L 63.4375 -103.167969 C 70.851562 -103.167969 79.992188 -101.976562 90.851562 -95.222656 Z M 98.53125 -105.949219 "/></g></g></g><g fill="#545454" fill-opacity="1"><g transform="translate(398.725872, 129.326246)"><g><path d="M 9.269531 -105.949219 C 10.460938 -95.882812 10.859375 -89.921875 10.859375 -77.605469 L 10.859375 -28.339844 C 10.859375 -16.023438 10.460938 -10.066406 9.269531 0 L 79.328125 0 L 84.230469 -10.328125 C 66.480469 -3.707031 58.667969 -2.78125 44.761719 -2.78125 L 33.109375 -2.78125 L 33.109375 -54.429688 L 40.128906 -54.429688 C 47.148438 -54.429688 54.296875 -54.429688 66.613281 -53.105469 L 66.613281 -58.535156 C 54.296875 -57.210938 47.148438 -57.210938 40.128906 -57.210938 L 33.109375 -57.210938 L 33.109375 -103.167969 L 44.5 -103.167969 C 51.914062 -103.167969 62.640625 -101.976562 73.632812 -95.222656 L 81.316406 -105.949219 Z M 9.269531 -105.949219 "/></g></g></g><g fill="#ffffff" fill-opacity="1"><g transform="translate(7.86322, 93.379391)"><g><path d="M 51.445312 -34.496094 L 42.246094 -34.496094 L 37.246094 -6.898438 L 32.898438 -33.996094 L 19.996094 -33.996094 L 15.449219 -7 L 10.847656 -34.496094 L 1.300781 -34.496094 L 9.597656 0 L 21.648438 0 L 26.296875 -26.847656 L 30.648438 0 L 42.644531 0 Z M 51.445312 -34.496094 "/></g></g></g><g fill="#ffffff" fill-opacity="1"><g transform="translate(66.155226, 93.379391)"><g><path d="M 35.796875 -34.496094 L 26.796875 -34.496094 L 26.796875 -20.398438 L 13 -20.398438 L 13 -34.496094 L 4 -34.496094 L 4 0 L 13 0 L 13 -13.398438 L 26.796875 -13.398438 L 26.796875 0 L 35.796875 0 Z M 35.796875 -34.496094 "/></g></g></g><g fill="#ffffff" fill-opacity="1"><g transform="translate(112.149137, 93.379391)"><g><path d="M 30.445312 -7 L 13 -7 L 13 -13.796875 L 28.945312 -13.796875 L 28.945312 -20.796875 L 13 -20.796875 L 13 -27.496094 L 29.945312 -27.496094 L 29.945312 -34.496094 L 4 -34.496094 L 4 0 L 30.445312 0 Z M 30.445312 -7 "/></g></g></g><g fill="#ffffff" fill-opacity="1"><g transform="translate(151.594069, 93.379391)"><g><path d="M 30.898438 -8.398438 C 30.398438 -12.546875 29.097656 -15.199219 25.496094 -16.5 C 30.097656 -17.847656 32.445312 -20.746094 32.445312 -25.097656 C 32.445312 -31.195312 28.097656 -33.648438 23.097656 -34.246094 C 21.246094 -34.445312 19.847656 -34.496094 17.699219 -34.496094 L 4 -34.496094 L 4 0 L 13 0 L 13 -13.097656 L 15 -13.097656 C 16 -13.097656 16.847656 -13.097656 17.847656 -13.046875 C 20.148438 -12.898438 21.648438 -10.699219 22.097656 -6.898438 C 22.398438 -4.449219 22.898438 -2.449219 23.699219 0 L 33.496094 0 C 32.148438 -2.050781 31.347656 -4.5 30.898438 -8.398438 Z M 13 -19.597656 L 13 -27.496094 L 16.5 -27.496094 C 17.449219 -27.496094 18.25 -27.496094 18.898438 -27.445312 C 21.199219 -27.246094 23.046875 -26.449219 23.046875 -23.546875 C 23.046875 -20.648438 20.949219 -19.847656 18.648438 -19.648438 C 18 -19.597656 17.199219 -19.597656 16.25 -19.597656 Z M 13 -19.597656 "/></g></g></g><g fill="#ffffff" fill-opacity="1"><g transform="translate(193.188648, 93.379391)"><g><path d="M 30.445312 -7 L 13 -7 L 13 -13.796875 L 28.945312 -13.796875 L 28.945312 -20.796875 L 13 -20.796875 L 13 -27.496094 L 29.945312 -27.496094 L 29.945312 -34.496094 L 4 -34.496094 L 4 0 L 30.445312 0 Z M 30.445312 -7 "/></g></g></g><g fill="#ffffff" fill-opacity="1"><g transform="translate(232.633569, 93.379391)"><g/></g></g><g fill="#ffffff" fill-opacity="1"><g transform="translate(248.932083, 93.379391)"><g><path d="M 13 0 L 13 -34.496094 L 4 -34.496094 L 4 0 Z M 13 0 "/></g></g></g><g fill="#ffffff" fill-opacity="1"><g transform="translate(272.129531, 93.379391)"><g><path d="M 16.097656 -35.195312 C 9.25 -35.195312 3.050781 -31.445312 3.050781 -24.796875 C 3.050781 -17.898438 7.648438 -15.449219 15.5 -13.5 C 19.746094 -12.449219 21.046875 -10.898438 21.046875 -9.097656 C 21.046875 -7.199219 19.148438 -5.898438 16.648438 -5.898438 C 13.949219 -5.898438 11.300781 -7.300781 10.699219 -10.550781 L 1.699219 -10.550781 C 2.25 -2.800781 8.148438 0.699219 16.898438 0.699219 C 23.847656 0.699219 30.445312 -2.800781 30.445312 -9.699219 C 30.445312 -15 27.347656 -18.796875 19.746094 -20.597656 C 14.046875 -21.949219 12.449219 -23.296875 12.449219 -25.496094 C 12.449219 -27.597656 13.847656 -28.597656 15.898438 -28.597656 C 18.847656 -28.597656 20.347656 -26.699219 20.746094 -23.847656 L 29.746094 -23.847656 C 28.996094 -30.246094 25.199219 -35.195312 16.097656 -35.195312 Z M 16.097656 -35.195312 "/></g></g></g><g fill="#ffffff" fill-opacity="1"><g transform="translate(310.924565, 93.379391)"><g/></g></g><g fill="#ffffff" fill-opacity="1"><g transform="translate(327.223079, 93.379391)"><g><path d="M 32.097656 -27.496094 L 32.097656 -34.496094 L 0.699219 -34.496094 L 0.699219 -27.496094 L 11.898438 -27.496094 L 11.898438 0 L 20.898438 0 L 20.898438 -27.496094 Z M 32.097656 -27.496094 "/></g></g></g><g fill="#ffffff" fill-opacity="1"><g transform="translate(366.318063, 93.379391)"><g><path d="M 35.796875 -34.496094 L 26.796875 -34.496094 L 26.796875 -20.398438 L 13 -20.398438 L 13 -34.496094 L 4 -34.496094 L 4 0 L 13 0 L 13 -13.398438 L 26.796875 -13.398438 L 26.796875 0 L 35.796875 0 Z M 35.796875 -34.496094 "/></g></g></g><g fill="#ffffff" fill-opacity="1"><g transform="translate(412.311957, 93.379391)"><g><path d="M 30.445312 -7 L 13 -7 L 13 -13.796875 L 28.945312 -13.796875 L 28.945312 -20.796875 L 13 -20.796875 L 13 -27.496094 L 29.945312 -27.496094 L 29.945312 -34.496094 L 4 -34.496094 L 4 0 L 30.445312 0 Z M 30.445312 -7 "/></g></g></g><g fill="#ffffff" fill-opacity="1"><g transform="translate(451.756901, 93.379391)"><g/></g></g><g fill="#ffffff" fill-opacity="1"><g transform="translate(468.055392, 93.379391)"><g><path d="M 30.445312 -7 L 13 -7 L 13 -13.796875 L 28.945312 -13.796875 L 28.945312 -20.796875 L 13 -20.796875 L 13 -27.496094 L 29.945312 -27.496094 L 29.945312 -34.496094 L 4 -34.496094 L 4 0 L 30.445312 0 Z M 30.445312 -7 "/></g></g></g><g fill="#ffffff" fill-opacity="1"><g transform="translate(507.500336, 93.379391)"><g><path d="M 36.996094 0 L 36.996094 -34.496094 L 27.996094 -34.496094 L 27.996094 -19.746094 C 27.996094 -17.75 28.046875 -14.199219 28.296875 -10.699219 L 15.199219 -34.496094 L 4 -34.496094 L 4 0 L 13 0 L 13 -14.25 C 13 -16.25 13 -19.296875 12.699219 -22.796875 L 25.246094 0 Z M 36.996094 0 "/></g></g></g><g fill="#ffffff" fill-opacity="1"><g transform="translate(554.694075, 93.379391)"><g><path d="M 21.449219 -34.296875 C 19.699219 -34.496094 18.898438 -34.496094 17.046875 -34.496094 L 4 -34.496094 L 4 0 L 17.046875 0 C 18.898438 0 19.699219 0 21.449219 -0.199219 C 29.445312 -1.101562 36.046875 -6.898438 36.046875 -17.699219 C 36.046875 -28.496094 29.445312 -33.398438 21.449219 -34.296875 Z M 19.046875 -7.097656 C 17.898438 -7 17.097656 -7 15.796875 -7 L 13 -7 L 13 -27.496094 L 15.796875 -27.496094 C 17.097656 -27.496094 17.898438 -27.496094 19.046875 -27.398438 C 23.546875 -26.996094 26.648438 -23.699219 26.648438 -17.546875 C 26.648438 -11.398438 23.546875 -7.5 19.046875 -7.097656 Z M 19.046875 -7.097656 "/></g></g></g><path stroke-linecap="butt" transform="matrix(0.75, 0, 0, 0.75, 3.749939, 40.129394)" fill="none" stroke-linejoin="miter" d="M 74.083419 25.009767 L 61.812585 25.009767 L 55.156335 61.806645 L 49.343834 25.676434 L 32.140708 25.676434 L 26.088625 61.676436 L 19.953208 25.009767 L 7.208415 25.009767 L 18.276124 70.999353 L 34.35425 70.999353 L 40.541751 35.197268 L 46.349043 70.999353 L 62.349043 70.999353 Z M 130.937589 25.009767 L 118.927172 25.009767 L 118.927172 43.806643 L 100.541754 43.806643 L 100.541754 25.009767 L 88.546962 25.009767 L 88.546962 70.999353 L 100.541754 70.999353 L 100.541754 53.129561 L 118.927172 53.129561 L 118.927172 70.999353 L 130.937589 70.999353 Z M 185.119884 61.676436 L 161.864674 61.676436 L 161.864674 52.608727 L 183.135509 52.608727 L 183.135509 43.270185 L 161.864674 43.270185 L 161.864674 34.332685 L 184.453217 34.332685 L 184.453217 25.009767 L 149.869882 25.009767 L 149.869882 70.999353 L 185.119884 70.999353 Z M 238.317804 59.801436 C 237.651137 54.270186 235.92197 50.738936 231.125095 48.999352 C 237.260512 47.207685 240.385512 43.332685 240.385512 37.541018 C 240.385512 29.400393 234.588637 26.129559 227.916761 25.332684 C 225.458428 25.072267 223.588636 25.009767 220.724053 25.009767 L 202.463635 25.009767 L 202.463635 70.999353 L 214.458427 70.999353 L 214.458427 53.535811 L 217.125094 53.535811 C 218.463636 53.535811 219.583428 53.535811 220.916761 53.603519 C 223.994886 53.796227 225.994886 56.728519 226.583428 61.806645 C 226.989678 65.061853 227.656345 67.72852 228.729262 70.999353 L 241.781346 70.999353 C 239.994887 68.264978 238.916762 64.994145 238.317804 59.801436 Z M 214.458427 44.863935 L 214.458427 34.332685 L 219.130303 34.332685 C 220.395928 34.332685 221.453219 34.332685 222.317803 34.400393 C 225.395928 34.676435 227.849053 35.733726 227.849053 39.608727 C 227.849053 43.462893 225.052178 44.53581 221.994886 44.796227 C 221.130303 44.863935 220.057386 44.863935 218.786553 44.863935 Z M 293.171974 61.676436 L 269.916764 61.676436 L 269.916764 52.608727 L 291.187599 52.608727 L 291.187599 43.270185 L 269.916764 43.270185 L 269.916764 34.332685 L 292.505307 34.332685 L 292.505307 25.009767 L 257.921972 25.009767 L 257.921972 70.999353 L 293.171974 70.999353 Z M 344.239685 70.999353 L 344.239685 25.009767 L 332.250101 25.009767 L 332.250101 70.999353 Z M 379.307395 24.067059 C 370.177186 24.067059 361.906353 29.077476 361.906353 37.931643 C 361.906353 47.139977 368.04177 50.395186 378.51052 52.999352 C 384.171979 54.400394 385.895937 56.468103 385.895937 58.874353 C 385.895937 61.400395 383.375104 63.139978 380.036562 63.139978 C 376.442812 63.139978 372.911562 61.270186 372.114687 56.936853 L 360.099061 56.936853 C 360.833436 67.275395 368.708436 71.926437 380.364687 71.926437 C 389.640729 71.926437 398.427188 67.275395 398.427188 58.061853 C 398.427188 50.999352 394.312605 45.936852 384.171979 43.530602 C 376.57302 41.738935 374.437603 39.931643 374.437603 37.00456 C 374.437603 34.202476 376.312603 32.869143 379.046979 32.869143 C 382.968854 32.869143 384.968854 35.405601 385.505312 39.197268 L 397.500105 39.197268 C 396.505313 30.671226 391.432396 24.067059 379.307395 24.067059 Z M 474.099068 34.332685 L 474.099068 25.009767 L 432.224065 25.009767 L 432.224065 34.332685 L 447.166774 34.332685 L 447.166774 70.999353 L 459.161567 70.999353 L 459.161567 34.332685 Z M 531.156363 25.009767 L 519.145945 25.009767 L 519.145945 43.806643 L 500.755319 43.806643 L 500.755319 25.009767 L 488.760527 25.009767 L 488.760527 70.999353 L 500.755319 70.999353 L 500.755319 53.129561 L 519.145945 53.129561 L 519.145945 70.999353 L 531.156363 70.999353 Z M 585.338657 61.676436 L 562.083448 61.676436 L 562.083448 52.608727 L 583.354282 52.608727 L 583.354282 43.270185 L 562.083448 43.270185 L 562.083448 34.332685 L 584.671991 34.332685 L 584.671991 25.009767 L 550.088655 25.009767 L 550.088655 70.999353 L 585.338657 70.999353 Z M 659.661578 61.676436 L 636.406369 61.676436 L 636.406369 52.608727 L 657.677203 52.608727 L 657.677203 43.270185 L 636.406369 43.270185 L 636.406369 34.332685 L 658.994912 34.332685 L 658.994912 25.009767 L 624.411576 25.009767 L 624.411576 70.999353 L 659.661578 70.999353 Z M 720.994915 70.999353 L 720.994915 25.009767 L 709.000123 25.009767 L 709.000123 44.666019 C 709.000123 47.337894 709.067831 52.072269 709.390748 56.728519 L 691.927205 25.009767 L 677.005329 25.009767 L 677.005329 70.999353 L 689.000122 70.999353 L 689.000122 52.009769 C 689.000122 49.337894 689.000122 45.270185 688.593872 40.59831 L 705.323039 70.999353 Z M 763.187626 25.270184 C 760.859501 25.009767 759.786584 25.009767 757.328251 25.009767 L 739.932416 25.009767 L 739.932416 70.999353 L 757.328251 70.999353 C 759.786584 70.999353 760.859501 70.999353 763.187626 70.738937 C 773.86471 69.535812 782.651169 61.806645 782.651169 47.400394 C 782.651169 32.999351 773.86471 26.473309 763.187626 25.270184 Z M 759.994918 61.530603 C 758.448042 61.676436 757.390751 61.676436 755.651167 61.676436 L 751.922 61.676436 L 751.922 34.332685 L 755.651167 34.332685 C 757.390751 34.332685 758.448042 34.332685 759.994918 34.462893 C 765.984501 34.999351 770.119918 39.395185 770.119918 47.59831 C 770.119918 55.801436 765.984501 61.009769 759.994918 61.530603 Z M 759.994918 61.530603 " stroke="#000000" stroke-width="4.583253" stroke-opacity="1" stroke-miterlimit="4"/><path stroke-linecap="butt" transform="matrix(0.75, 0, 0, 0.75, 15.000004, 11.353023)" fill="none" stroke-linejoin="miter" d="M -0.0000055 -0.00194704 L 760.000039 -0.00194704 " stroke="#000000" stroke-width="4" stroke-opacity="1" stroke-miterlimit="4"/><path stroke-linecap="butt" transform="matrix(0.75, 0, 0, 0.75, 15.000004, 140.042382)" fill="none" stroke-linejoin="miter" d="M -0.0000055 0.000782559 L 760.000039 0.000782559 " stroke="#000000" stroke-width="4" stroke-opacity="1" stroke-miterlimit="4"/></svg>