<svg xmlns="http://www.w3.org/2000/svg" xmlns:xlink="http://www.w3.org/1999/xlink" width="500" zoomAndPan="magnify" viewBox="0 0 375 374.999991" height="500" preserveAspectRatio="xMidYMid meet" version="1.0"><defs><g/><clipPath id="752d83074f"><path d="M 6.964844 7.789062 L 366.214844 7.789062 L 366.214844 367.039062 L 6.964844 367.039062 Z M 6.964844 7.789062 " clip-rule="nonzero"/></clipPath><clipPath id="caef103f28"><path d="M 0 0 L 374.699219 0 L 374.699219 374.699219 L 0 374.699219 Z M 0 0 " clip-rule="nonzero"/></clipPath></defs><g clip-path="url(#752d83074f)"><path fill="#cbb074" d="M 186.589844 7.789062 C 87.386719 7.789062 6.964844 88.210938 6.964844 187.414062 C 6.964844 286.617188 87.386719 367.039062 186.589844 367.039062 C 285.792969 367.039062 366.214844 286.617188 366.214844 187.414062 C 366.214844 88.210938 285.792969 7.789062 186.589844 7.789062 " fill-opacity="1" fill-rule="nonzero"/></g><g clip-path="url(#caef103f28)"><path fill="#000000" d="M 187.351562 374.699219 C 137.332031 374.699219 90.230469 355.230469 54.886719 319.8125 C 19.46875 284.46875 0 237.371094 0 187.351562 C 0 137.332031 19.46875 90.230469 54.886719 54.886719 C 90.230469 19.46875 137.332031 0 187.351562 0 C 237.371094 0 284.46875 19.46875 319.8125 54.886719 C 355.230469 90.304688 374.699219 137.332031 374.699219 187.351562 C 374.699219 237.371094 355.230469 284.46875 319.8125 319.8125 C 284.46875 355.230469 237.371094 374.699219 187.351562 374.699219 Z M 187.351562 11.230469 C 140.324219 11.230469 96.070312 29.578125 62.824219 62.824219 C 29.578125 96.070312 11.230469 140.324219 11.230469 187.351562 C 11.230469 234.375 29.578125 278.628906 62.824219 311.875 C 96.070312 345.121094 140.324219 363.46875 187.351562 363.46875 C 234.375 363.46875 278.628906 345.121094 311.875 311.875 C 345.121094 278.628906 363.46875 234.375 363.46875 187.351562 C 363.46875 140.324219 345.121094 96.070312 311.875 62.824219 C 278.628906 29.578125 234.375 11.230469 187.351562 11.230469 Z M 187.351562 11.230469 " fill-opacity="1" fill-rule="nonzero"/></g><g fill="#000000" fill-opacity="1"><g transform="translate(14.656737, 242.82603)"><g><path d="M 109.234375 0 L 85.90625 0 L 69.328125 -61.6875 L 52.515625 0 L 29.0625 0 L -0.125 -89.21875 L 24.09375 -89.21875 L 41.546875 -23.578125 L 58.625 -89.21875 L 80.8125 -89.21875 L 98.265625 -23.578125 L 115.46875 -89.21875 L 138.671875 -89.21875 Z M 109.234375 0 "/></g></g></g><g fill="#000000" fill-opacity="1"><g transform="translate(152.418812, 242.82603)"><g><path d="M 31.609375 0 L 8.921875 0 L 8.921875 -89.21875 L 31.609375 -89.21875 Z M 31.609375 0 "/></g></g></g><g fill="#000000" fill-opacity="1"><g transform="translate(192.944563, 242.82603)"><g><path d="M 77.109375 -70.984375 L 50.21875 -70.984375 L 50.21875 0 L 27.53125 0 L 27.53125 -70.984375 L 0.890625 -70.984375 L 0.890625 -89.34375 L 77.109375 -89.34375 Z M 77.109375 -70.984375 "/></g></g></g><g fill="#000000" fill-opacity="1"><g transform="translate(270.81009, 242.82603)"><g><path d="M 78.765625 -71.375 L 31.609375 -71.375 L 31.609375 -53.65625 L 74.171875 -53.65625 L 74.171875 -35.8125 L 31.609375 -35.8125 L 31.609375 -17.84375 L 80.171875 -17.84375 L 80.171875 0 L 8.921875 0 L 8.921875 -89.21875 L 78.765625 -89.21875 Z M 78.765625 -71.375 "/></g></g></g><path stroke-linecap="butt" transform="matrix(0.749794, 0, 0, 0.735632, 16.100648, 134.534406)" fill="none" stroke-linejoin="miter" d="M 0.00121902 0.00102046 L 455.131461 0.00102046 " stroke="#000000" stroke-width="8" stroke-opacity="1" stroke-miterlimit="4"/><path stroke-linecap="butt" transform="matrix(0.750216, 0, 0, 0.735632, 26.243949, 261.119426)" fill="none" stroke-linejoin="miter" d="M -0.00234833 0.00226703 L 433.877862 0.00226703 " stroke="#000000" stroke-width="8" stroke-opacity="1" stroke-miterlimit="4"/></svg>